PathFileType	4	(X/Y/Z)	G:\GRF\jawan data\CompiledGRF\03. Mohit Kumar\0231~ac~Walking 06_markers.trc
DataRate	CameraRate	NumFrames	NumMarkers	Units	OrigDataRate	OrigDataStartFrame	OrigNumFrames
100.000000	100.000000	7	18	mm	100.000000	366	977
Frame#	Time	c7			r should			l should			sacrum			r asis			r bar 1			r knee 1			r bar 2			r mall			r heel			r met			l asis			l bar 1			l knee 1			l bar 2			l mall			l heel			l met			
		X1	Y1	Z1	X2	Y2	Z2	X3	Y3	Z3	X4	Y4	Z4	X5	Y5	Z5	X6	Y6	Z6	X7	Y7	Z7	X8	Y8	Z8	X9	Y9	Z9	X10	Y10	Z10	X11	Y11	Z11	X12	Y12	Z12	X13	Y13	Z13	X14	Y14	Z14	X15	Y15	Z15	X16	Y16	Z16	X17	Y17	Z17	X18	Y18	Z18	

367	3.66	-1314.072875976563	1496.118774414063	286.5926513671875	-1256.93408203125	1451.352905273438	448.7431335449219	-1269.71337890625	1452.56396484375	121.0080795288086	-1435.296752929688	1040.8310546875	277.2989501953125	nan	nan	nan	-1415.38818359375	604.2809448242188	463.3161315917969	-1418.921020507813	517.0982666015625	410.2085266113281	-1556.87109375	217.2319488525391	420.0931396484375	-1586.271728515625	94.19371795654297	356.8080139160156	nan	nan	nan	-1442.290405273438	45.17355346679688	359.1812744140625	nan	nan	nan	-1179.875	604.5568237304688	84.85396575927734	-1126.634399414063	535.3713989257813	141.2276306152344	-1080.027099609375	263.6519165039063	87.79257202148438	-1020.295959472656	97.34148406982422	153.9635925292969	-1065.447265625	37.11003112792969	205.0552825927734	-877.274169921875	110.4985961914063	184.0806579589844	
368	3.67	-1304.603637695313	1495.307495117188	285.012451171875	-1247.734619140625	1451.046752929688	447.362060546875	-1259.867309570313	1451.556884765625	119.5549240112305	-1425.080322265625	1039.880615234375	275.9011535644531	nan	nan	nan	-1404.815551757813	602.6233520507813	461.6962890625	-1411.108276367188	516.7035522460938	409.3441467285156	-1555.43017578125	220.4185485839844	419.9520263671875	-1584.8388671875	95.93240356445313	357.2339172363281	nan	nan	nan	-1442.165771484375	45.15847396850586	359.0982971191406	nan	nan	nan	-1167.883422851563	604.0503540039063	85.06956481933594	-1115.984985351563	534.7550659179688	141.5731201171875	-1072.184326171875	261.8681640625	88.07110595703125	-1015.682800292969	94.65367126464844	154.4154510498047	-1061.886840820313	34.66399765014648	204.7839965820313	-872.88818359375	106.0950241088867	185.6524353027344	
369	3.68	-1295.1572265625	1494.592895507813	283.3779907226563	-1238.463745117188	1450.862670898438	445.9356384277344	-1250.065551757813	1450.688232421875	118.1046524047852	-1414.559936523438	1038.935180664063	274.4865417480469	nan	nan	nan	-1397.356201171875	602.8885498046875	461.0190734863281	-1403.378662109375	516.5926513671875	408.4705505371094	-1552.977905273438	223.2660675048828	420.1653137207031	-1583.563598632813	98.20418548583984	357.5878295898438	nan	nan	nan	-1441.910888671875	45.02204895019531	359.013916015625	nan	nan	nan	-1155.7236328125	603.8616943359375	85.47675323486328	-1104.892700195313	533.9393310546875	142.2455596923828	-1065.64111328125	259.8963317871094	88.40734100341797	-1013.449401855469	91.42786407470703	154.5806274414063	-1060.774658203125	31.96232795715332	204.5467224121094	-870.367431640625	100.386474609375	187.2417449951172	
370	3.69	-1285.750366210938	1493.997924804688	281.7355651855469	-1229.180053710938	1450.774658203125	444.4768676757813	-1240.054443359375	1449.878784179688	116.5667343139648	-1403.676147460938	1038.0986328125	272.9687194824219	nan	nan	nan	-1389.525512695313	603.135498046875	460.3474731445313	-1394.865966796875	516.4072875976563	408.0261535644531	-1550.04296875	226.146240234375	420.4981994628906	-1582.581909179688	101.0753479003906	357.9132690429688	nan	nan	nan	-1441.79296875	44.99872970581055	359.109130859375	nan	nan	nan	-1143.51806640625	603.646484375	85.92794799804688	-1093.58349609375	533.2936401367188	143.0623779296875	-1060.104858398438	257.5895080566406	88.78177642822266	-1012.634521484375	87.88639068603516	154.9774780273438	-1061.7236328125	28.88707542419434	204.1912536621094	-869.6154174804688	93.80662536621094	189.0497894287109	
371	3.7	-1276.173583984375	1493.4248046875	279.9981384277344	-1219.853271484375	1450.762451171875	442.9783325195313	-1230.0654296875	1449.204467773438	114.9843978881836	-1392.584350585938	1037.481323242188	271.3909912109375	nan	nan	nan	-1381.873657226563	603.8373413085938	459.9043273925781	-1386.126098632813	516.2144775390625	407.4139099121094	-1546.948364257813	229.3445587158203	420.9140625	-1580.836791992188	103.7559127807617	358.3782043457031	nan	nan	nan	-1441.892333984375	45.0907096862793	358.9770812988281	nan	nan	nan	-1131.127319335938	603.4677124023438	86.47030639648438	-1083.009033203125	532.6270751953125	143.9969024658203	-1055.24365234375	254.8378753662109	89.29950714111328	-1013.12353515625	84.29295349121094	155.2981719970703	-1063.552124023438	25.5510139465332	203.5797576904297	-869.7742309570313	86.58346557617188	190.9991912841797	
372	3.71	-1266.634643554688	1493.057006835938	278.2596130371094	-1210.54833984375	1450.849609375	441.4422607421875	-1220.155639648438	1448.717163085938	113.3802719116211	-1381.231567382813	1037.006591796875	269.6570129394531	nan	nan	nan	-1373.109252929688	604.1383666992188	459.16259765625	-1376.798706054688	516.01025390625	407.1200256347656	-1543.402954101563	232.7012329101563	421.4465637207031	-1578.93212890625	106.7666015625	359.0961608886719	nan	nan	nan	-1442.11279296875	45.1324577331543	358.5590515136719	nan	nan	nan	-1118.714233398438	603.2053833007813	87.12960815429688	-1073.733642578125	531.1312255859375	144.8040924072266	-1051.178466796875	252.3634185791016	90.29902648925781	-1013.233642578125	81.78655242919922	155.9596710205078	-1064.448852539063	24.31697082519531	203.1425476074219	-869.8665161132813	79.71583557128906	193.7111968994141	
373	3.72	-1256.964233398438	1493.001342773438	276.4417114257813	-1201.1376953125	1451.071166992188	439.878662109375	-1209.99755859375	1448.396362304688	111.6933822631836	-1370.051879882813	1036.7548828125	267.7260131835938	nan	nan	nan	-1363.611206054688	604.3995971679688	458.2929992675781	-1367.076904296875	515.851318359375	406.5799255371094	-1539.365234375	236.2696380615234	422.05322265625	-1576.6376953125	109.9303741455078	360.2740173339844	nan	nan	nan	-1441.81201171875	45.04479217529297	358.724609375	nan	nan	nan	-1107.143920898438	603.2825927734375	87.60968780517578	-1066.929565429688	528.4722290039063	144.9602966308594	-1046.6552734375	250.5951232910156	91.58186340332031	-1010.0107421875	81.41986846923828	156.9592895507813	-1063.036499023438	26.42221832275391	203.2377624511719	-866.5210571289063	73.82075500488281	196.1964569091797	
